<svg version="1.1" id="Layer_1" xmlns="http://www.w3.org/2000/svg" xmlns:xlink="http://www.w3.org/1999/xlink" x="0px" y="0px" viewBox="0 0 500 500" style="width: 144px;" xml:space="preserve" data-imageid="savings-74" imageName="Savings" class="illustrations_image">
<style type="text/css">
	.st0_savings-74{fill:#FFBC0E;}
	.st1_savings-74{fill:#093F68;}
	.st2_savings-74{fill:#68E1FD;}
	.st3_savings-74{fill:#FFFFFF;}
</style>
<g id="coins-2_savings-74">
	<path class="st0_savings-74" d="M131.9,396.2h-61c-1.2,0-2.1-0.9-2.1-2.1v-12.7c0-1.2,0.9-2.1,2.1-2.1h61c1.2,0,2.1,0.9,2.1,2.1v12.7&#10;&#9;&#9;C134,395.3,133,396.2,131.9,396.2z"/>
	<path class="st1_savings-74" d="M130.4,397.9H72.3c-2.9,0-5.2-2.3-5.2-5.2v-9.8c0-2.9,2.3-5.2,5.2-5.2h58.1c2.9,0,5.2,2.3,5.2,5.2v9.8&#10;&#9;&#9;C135.6,395.5,133.3,397.9,130.4,397.9z M72.3,381c-1,0-1.9,0.8-1.9,1.9v9.8c0,1,0.8,1.9,1.9,1.9h58.1c1,0,1.9-0.8,1.9-1.9v-9.8&#10;&#9;&#9;c0-1-0.8-1.9-1.9-1.9H72.3z"/>
	<path class="st0_savings-74" d="M138.8,379.3h-61c-1.2,0-2.1-0.9-2.1-2.1v-12.7c0-1.2,0.9-2.1,2.1-2.1h61c1.2,0,2.1,0.9,2.1,2.1v12.7&#10;&#9;&#9;C140.9,378.4,140,379.3,138.8,379.3z"/>
	<path class="st1_savings-74" d="M137.4,381H79.3c-2.9,0-5.3-2.3-5.3-5.2c0,0,0,0,0,0V366c0-2.9,2.3-5.2,5.2-5.2h58.1c2.9,0,5.2,2.3,5.3,5.2&#10;&#9;&#9;c0,0,0,0,0,0v9.8C142.6,378.7,140.3,381,137.4,381z M79.3,364.1c-1,0-1.9,0.8-1.9,1.9l0,0v9.8c0,1,0.8,1.9,1.9,1.9h58.1&#10;&#9;&#9;c1,0,1.9-0.8,1.9-1.9V366c0-1-0.8-1.9-1.9-1.9L79.3,364.1z"/>
	<path class="st0_savings-74" d="M145.9,362.4h-61c-1.2,0-2.1-0.9-2.1-2.1v-12.7c0-1.2,0.9-2.1,2.1-2.1h61c1.2,0,2.1,0.9,2.1,2.1v12.7&#10;&#9;&#9;C148,361.5,147.1,362.4,145.9,362.4z"/>
	<path class="st1_savings-74" d="M144.5,364.1H86.4c-2.9,0-5.2-2.3-5.2-5.2v-9.8c0-2.9,2.3-5.2,5.2-5.2h58.1c2.9,0,5.2,2.3,5.2,5.2v9.8&#10;&#9;&#9;C149.7,361.8,147.4,364.1,144.5,364.1z M86.4,347.2c-1,0-1.9,0.8-1.9,1.9v9.8c0,1,0.8,1.9,1.9,1.9h58.1c1,0,1.9-0.8,1.9-1.9v-9.8&#10;&#9;&#9;c0-1-0.8-1.9-1.9-1.9H86.4z"/>
	<path class="st0_savings-74" d="M123.3,345.6h-61c-1.2,0-2.1-0.9-2.1-2.1v-12.7c0-1.2,0.9-2.1,2.1-2.1h61c1.2,0,2.1,0.9,2.1,2.1v12.7&#10;&#9;&#9;C125.4,344.6,124.5,345.6,123.3,345.6z"/>
	<path class="st1_savings-74" d="M121.9,347.2H63.8c-2.9,0-5.2-2.3-5.2-5.2v-9.8c0-2.9,2.4-5.2,5.2-5.2h58.1c2.9,0,5.2,2.3,5.2,5.2v9.8&#10;&#9;&#9;C127.1,344.9,124.8,347.2,121.9,347.2z M63.8,330.4c-1,0-1.9,0.8-1.9,1.9v9.8c0,1,0.8,1.9,1.9,1.9c0,0,0,0,0,0h58.1&#10;&#9;&#9;c1,0,1.9-0.8,1.9-1.9l0,0v-9.8c0-1-0.8-1.9-1.9-1.9L63.8,330.4z"/>
	<path class="st0_savings-74" d="M131.9,328.7h-61c-1.2,0-2.1-0.9-2.1-2.1v-12.7c0-1.2,0.9-2.1,2.1-2.1h61c1.2,0,2.1,0.9,2.1,2.1v12.7&#10;&#9;&#9;C134,327.7,133,328.7,131.9,328.7z"/>
	<path class="st1_savings-74" d="M130.4,330.4H72.3c-2.9,0-5.2-2.3-5.2-5.2v-9.8c0-2.9,2.3-5.2,5.2-5.2h58.1c2.9,0,5.2,2.3,5.2,5.2v9.8&#10;&#9;&#9;C135.6,328,133.3,330.4,130.4,330.4z M72.3,313.5c-1,0-1.9,0.8-1.9,1.9v9.8c0,1,0.8,1.9,1.9,1.9c0,0,0,0,0,0h58.1&#10;&#9;&#9;c1,0,1.9-0.8,1.9-1.9v-9.8c0-1-0.8-1.9-1.9-1.9L72.3,313.5z"/>
</g>
<g id="piggy-bank_savings-74">
	<path class="st1_savings-74" d="M141.1,257.2c-7.1,0-18.1-1.3-25.9-8.2c-1.1-1-2-2.1-2.8-3.4c-4.5-0.6-10.1-2.9-16.2-9.2&#10;&#9;&#9;c-0.6-0.7-0.5-1.8,0.2-2.4c0.6-0.6,1.6-0.5,2.2,0c4,4.1,8.1,6.8,12.2,7.8c-1-3.5-1.1-7.1-0.3-10.7c1.1-5.5,4-9.4,7.7-10.6&#10;&#9;&#9;c2.2-0.7,5.6-0.8,9.8,3c2.8,2.6,4,6.5,3,10.2c-1.5,5.6-5.9,9.9-11.5,11.4c-0.9,0.3-1.9,0.4-2.8,0.5c0.3,0.3,0.5,0.6,0.8,0.8&#10;&#9;&#9;c11,9.7,30.1,6.9,30.3,6.9c0.9-0.1,1.8,0.5,1.9,1.4s-0.5,1.8-1.4,1.9C145.9,257.1,143.5,257.3,141.1,257.2z M114.6,242.5&#10;&#9;&#9;c1.4,0,2.7-0.1,4-0.5c4.4-1.1,7.9-4.5,9.1-8.9c0.7-2.5-0.1-5.2-2-7c-2.4-2.1-4.6-2.9-6.5-2.3c-2.5,0.8-4.5,3.9-5.4,8.1&#10;&#9;&#9;C113.1,235.4,113.3,239.1,114.6,242.5z"/>
	<path class="st2_savings-74 targetColor" d="M345.1,203.2c0,0,45.4-32.1,44.1-17.7s-11.4,43.8-11.4,43.8" style="fill: rgb(92, 178, 226);"/>
	<path class="st1_savings-74" d="M377.8,230.9c-0.2,0-0.4,0-0.5-0.1c-0.9-0.3-1.3-1.3-1-2.1c0.1-0.3,10.1-29.4,11.3-43.4&#10;&#9;&#9;c0.1-1.3-0.3-1.5-0.4-1.6c-4-2.3-24,8.8-41,20.9c-0.7,0.6-1.8,0.5-2.4-0.2c-0.6-0.7-0.5-1.8,0.2-2.4c0.1-0.1,0.1-0.1,0.2-0.1&#10;&#9;&#9;c6.1-4.3,36.8-25.5,44.6-21.1c1.1,0.6,2.4,2,2.1,4.8c-1.3,14.4-11.1,43-11.5,44.2C379.2,230.5,378.6,231,377.8,230.9z"/>
	<path class="st2_savings-74 targetColor" d="M313.6,396.2h14.9c5.8,0,10.7-4.3,11.5-10.1l5.9-43.4h-49.8l5.9,43.4C302.8,391.9,307.8,396.2,313.6,396.2z" style="fill: rgb(92, 178, 226);"/>
	<path class="st1_savings-74" d="M328.5,397.9h-14.9c-6.7,0-12.3-4.9-13.2-11.5l-5.9-43.4c-0.1-0.5,0.1-1,0.4-1.3c0.3-0.4,0.8-0.6,1.3-0.6h49.8&#10;&#9;&#9;c0.5,0,1,0.2,1.3,0.6c0.3,0.4,0.5,0.8,0.4,1.3l-5.9,43.4C340.7,393,335.1,397.9,328.5,397.9z M298,344.4l5.7,41.5&#10;&#9;&#9;c0.7,4.9,4.9,8.6,9.9,8.6h14.9c5,0,9.2-3.7,9.9-8.6l5.7-41.5H298z"/>
	<path class="st2_savings-74 targetColor" d="M195.8,396.2h14.9c5.8,0,10.8-4.3,11.5-10.1l5.9-43.4h-49.8l5.9,43.4C185.1,391.9,190,396.2,195.8,396.2z" style="fill: rgb(92, 178, 226);"/>
	<path class="st1_savings-74" d="M210.7,397.9h-14.9c-6.7,0-12.3-4.9-13.2-11.5l-5.9-43.4c-0.1-0.9,0.5-1.8,1.5-1.9c0.1,0,0.1,0,0.2,0h49.8&#10;&#9;&#9;c0.9,0,1.7,0.8,1.7,1.7c0,0.1,0,0.1,0,0.2l-5.9,43.4C223,393,217.3,397.9,210.7,397.9z M180.3,344.4l5.7,41.5&#10;&#9;&#9;c0.7,4.9,4.9,8.6,9.9,8.6h14.9c5,0,9.2-3.7,9.9-8.6l5.7-41.5H180.3z"/>
	<path class="st2_savings-74 targetColor" d="M221.6,183.4H300c49.7,0,90,40.3,90,90l0,0v6.1c0,39-25.1,73.6-62.2,85.6l-2.9,21.1&#10;&#9;&#9;c-0.8,5.8-5.7,10.1-11.5,10.1h-14.8c-5.8,0-10.7-4.3-11.5-10.1l-2.3-16.7h-63.1c-4.1,0-8.2-0.3-12.3-0.9l-2.4,17.5&#10;&#9;&#9;c-0.8,5.8-5.7,10.1-11.5,10.1h-14.9c-5.8,0-10.7-4.3-11.5-10.1l-5.2-37.7c-20.4-17.1-32.2-42.3-32.2-68.9v-6.1&#10;&#9;&#9;C131.7,223.7,171.9,183.4,221.6,183.4z" style="fill: rgb(92, 178, 226);"/>
	<path class="st1_savings-74" d="M313.4,397.9h-14.9c-6.7,0-12.3-4.9-13.2-11.5l-2.1-15.2h-61.6c-3.6,0-7.3-0.2-10.9-0.7l-2.2,15.9&#10;&#9;&#9;c-0.9,6.6-6.6,11.5-13.2,11.5h-14.9c-6.7,0-12.3-4.9-13.2-11.5l-5.1-37.1c-20.5-17.4-32.3-42.9-32.3-69.8v-6.1&#10;&#9;&#9;c0.1-50.6,41.1-91.6,91.7-91.7H300c50.6,0.1,91.6,41.1,91.7,91.7v6.1c0.1,39.4-25.1,74.4-62.4,86.9l-2.7,20&#10;&#9;&#9;C325.6,392.9,320,397.8,313.4,397.9z M209.3,366.9h0.2c4,0.6,8,0.8,12.1,0.8h63.1c0.8,0,1.6,0.6,1.7,1.5l2.3,16.7&#10;&#9;&#9;c0.7,4.9,4.9,8.6,9.9,8.6h14.9c5,0,9.2-3.7,9.9-8.6l2.9-21c0.1-0.6,0.5-1.2,1.1-1.4c36.5-11.7,61.1-45.7,61.1-84v-6.1&#10;&#9;&#9;c-0.1-48.7-39.6-88.2-88.4-88.3h-78.4c-48.7,0-88.3,39.6-88.3,88.3v6.1c0,26.1,11.5,50.9,31.6,67.7c0.3,0.3,0.5,0.6,0.6,1.1&#10;&#9;&#9;l5.1,37.7c0.7,4.9,4.9,8.6,9.9,8.6h14.9c5,0,9.2-3.7,9.9-8.6l2.4-17.5c0.1-0.4,0.3-0.8,0.6-1.1C208.6,367,208.9,366.9,209.3,366.9&#10;&#9;&#9;L209.3,366.9z"/>
	<path class="st2_savings-74 targetColor" d="M378.6,319.6h-35.5c-13.3,0-24.1-10.8-24.1-24.1v-0.4c0-13.3,10.8-24.1,24.1-24.1h35.5&#10;&#9;&#9;c13.3,0,24.1,10.8,24.1,24.1v0.4C402.7,308.9,391.9,319.6,378.6,319.6z" style="fill: rgb(92, 178, 226);"/>
	<path class="st1_savings-74" d="M379.9,321.3h-37.9c-13.5,0-24.5-11-24.5-24.5v-2.9c0-13.5,11-24.5,24.5-24.5h37.9c13.5,0,24.5,11,24.5,24.5&#10;&#9;&#9;v2.9C404.4,310.3,393.4,321.3,379.9,321.3z M341.9,272.7c-11.7,0-21.1,9.5-21.1,21.2v2.9c0,11.7,9.5,21.1,21.1,21.1h37.9&#10;&#9;&#9;c11.7,0,21.1-9.5,21.1-21.1v-2.9c0-11.7-9.5-21.1-21.2-21.2H341.9z"/>
	<path class="st2_savings-74 targetColor" d="M328,206.4c0,0-15.1-39.7-23-39.7s-19.7,50.7-19.7,50.7" style="fill: rgb(92, 178, 226);"/>
	<path class="st1_savings-74" d="M285.3,219.1c-0.1,0-0.3,0-0.4,0c-0.9-0.2-1.4-1.1-1.2-2c0-0.1,3-12.9,6.9-25.4c7.3-23.5,11.5-26.5,14.4-26.5&#10;&#9;&#9;c8.4,0,20.9,31.2,24.5,40.8c0.3,0.9-0.1,1.8-1,2.2c-0.9,0.3-1.8-0.1-2.2-1c-7.1-18.6-17.3-38.6-21.4-38.6c-3.1,0-11.1,19.8-18,49.4&#10;&#9;&#9;C286.8,218.6,286.1,219.1,285.3,219.1z"/>
	<circle class="st2_savings-74 targetColor" cx="374.2" cy="295.3" r="7" style="fill: rgb(92, 178, 226);"/>
	<path class="st1_savings-74" d="M374.2,304c-4.8,0-8.7-3.9-8.7-8.7c0-4.8,3.9-8.7,8.7-8.7c4.8,0,8.7,3.9,8.7,8.7c0,0,0,0,0,0&#10;&#9;&#9;C382.9,300.1,379,304,374.2,304z M374.2,290c-2.9,0-5.3,2.4-5.3,5.3c0,2.9,2.4,5.3,5.3,5.3s5.3-2.4,5.3-5.3c0,0,0,0,0,0&#10;&#9;&#9;C379.5,292.4,377.1,290,374.2,290z"/>
	<circle class="st2_savings-74 targetColor" cx="347.6" cy="295.3" r="7" style="fill: rgb(92, 178, 226);"/>
	<path class="st1_savings-74" d="M347.6,304c-4.8,0-8.7-3.9-8.7-8.7s3.9-8.7,8.7-8.7c4.8,0,8.7,3.9,8.7,8.7c0,0,0,0,0,0&#10;&#9;&#9;C356.3,300.1,352.4,304,347.6,304z M347.6,290c-2.9,0-5.3,2.4-5.3,5.3c0,2.9,2.4,5.3,5.3,5.3s5.3-2.4,5.3-5.3c0,0,0,0,0,0&#10;&#9;&#9;C352.9,292.4,350.5,290,347.6,290z"/>
	<path class="st1_savings-74" d="M200.9,196.5c0,2.4,2,4.4,4.4,4.4c0,0,0,0,0,0H272c2.4,0,4.4-2,4.4-4.4c0,0,0,0,0,0c0-2.3-1.8-4.2-4.1-4.4&#10;&#9;&#9;c-0.1,0-0.2,0-0.3,0h-66.7c-0.1,0-0.2,0-0.3,0C202.7,192.3,200.9,194.2,200.9,196.5z"/>
	<path class="st1_savings-74" d="M272,202.5h-66.7c-3.3,0-6-2.8-6-6.1c0-3.1,2.5-5.7,5.6-6c0.1,0,0.3,0,0.4,0H272c0.2,0,0.4,0,0.5,0&#10;&#9;&#9;c1.4,0.1,2.7,0.7,3.7,1.8c2.4,2.3,2.5,6.1,0.2,8.5C275.3,201.9,273.7,202.6,272,202.5z M205.3,193.8h-0.2c-1.5,0.1-2.6,1.3-2.6,2.8&#10;&#9;&#9;s1.3,2.6,2.8,2.6H272c1.5,0,2.7-1.2,2.7-2.7c0,0,0,0,0,0c0-0.7-0.3-1.4-0.8-1.9c-0.5-0.5-1.1-0.8-1.7-0.8H272L205.3,193.8z"/>
	<ellipse class="st1_savings-74" cx="370.7" cy="251.5" rx="3.5" ry="7.3"/>
	<ellipse class="st1_savings-74" cx="340.6" cy="251.5" rx="3.5" ry="7.3"/>
	<path class="st3_savings-74" d="M143.9,291.5c-0.8,0-1.5-0.6-1.6-1.4c-9.1-48.2,27.9-73.8,28.3-74.1c0.7-0.6,1.8-0.4,2.4,0.3&#10;&#9;&#9;c0.6,0.7,0.4,1.8-0.3,2.4c0,0-0.1,0.1-0.1,0.1c-0.4,0.2-35.5,24.7-26.9,70.7c0.2,0.9-0.4,1.8-1.3,2c0,0,0,0-0.1,0&#10;&#9;&#9;C144.1,291.5,144,291.5,143.9,291.5z"/>
</g>
<g id="coins-1_savings-74">
	
		<ellipse transform="matrix(0.1602 -0.9871 0.9871 0.1602 104.4632 387.8617)" class="st0_savings-74" cx="280.2" cy="132.5" rx="30.3" ry="30.3"/>
	<path class="st1_savings-74" d="M280.2,164.6c-17.7,0-32.1-14.3-32.1-32s14.3-32.1,32-32.1c17.7,0,32.1,14.3,32.1,32c0,13-7.8,24.8-19.9,29.7&#10;&#9;&#9;C288.4,163.7,284.3,164.5,280.2,164.6z M280.2,103.9c-11.5,0-21.9,6.9-26.4,17.6l0,0c-6.1,14.6,0.8,31.3,15.3,37.4&#10;&#9;&#9;c14.6,6.1,31.3-0.8,37.4-15.3s-0.8-31.3-15.4-37.4C287.7,104.7,283.9,103.9,280.2,103.9z M252.2,120.8L252.2,120.8z"/>
	<g id="lUQdTl_savings-74">
		<path class="st3_savings-74" d="M273.3,109.7c0.6,1.5,1.2,2.9,1.8,4.4c0.1,0.3,0.2,0.3,0.5,0.3c2.3-0.5,4.7-0.4,7,0.3&#10;&#9;&#9;&#9;c2.4,0.7,4.4,2.3,5.7,4.4c0.4,0.6,0.7,1.2,1,1.8l-6.8,2.8c-0.4-1-1.2-1.8-2.2-2.4c-0.8-0.3-1.6-0.6-2.5-0.8l-0.1,0.1l3.5,8.4&#10;&#9;&#9;&#9;l0.8-0.1c2-0.4,4-0.6,6-0.5c3.1,0,5.9,1.8,7.3,4.5c1.5,2.4,1.9,5.3,1.3,8.1c-0.5,2.3-1.7,4.3-3.5,5.8c-1.1,1-2.2,1.8-3.4,2.7&#10;&#9;&#9;&#9;l1.4,3.3l-6.2,2.6l-1.4-3.4c-1.4,0.2-2.7,0.4-4,0.5c-2.6,0.2-5.1-0.4-7.3-1.8c-1.8-1.3-3.2-3-4-5.1l6.6-2.8&#10;&#9;&#9;&#9;c1.1,2.3,3.6,3.7,6.1,3.2c-1.3-3-2.5-6-3.8-9c-1.4,0.2-2.8,0.4-4.2,0.5c-1.7,0.2-3.4,0-5-0.6c-1.6-0.7-3-1.8-3.9-3.3&#10;&#9;&#9;&#9;c-1.2-1.8-1.9-3.9-2-6c-0.1-3.1,1.1-6.1,3.4-8.2c1-0.8,2-1.6,3-2.3l0.4-0.2l-1.9-4.5L273.3,109.7z M287.5,143.5&#10;&#9;&#9;&#9;c1-0.6,1.8-1.4,2.3-2.4c0.9-1.8,0.3-3.9-1.4-5c-1.3-0.7-2.7-0.4-4.1-0.4L287.5,143.5z M271.4,122.7c-0.7,0.7-1.3,1.4-1.9,2.2&#10;&#9;&#9;&#9;c-1,1.7-0.5,3.9,1.2,5c0.2,0.1,0.3,0.2,0.5,0.3c1.1,0.3,2.2,0.3,3.3,0.1L271.4,122.7z"/>
	</g>
	<path class="st0_savings-74" d="M266.5,197.4c1.1-2.5,1.9-5.1,2.3-7.8c0.3-1.6,0.4-3.2,0.4-4.7c-0.3-16.7-14.1-30.1-30.9-29.8&#10;&#9;&#9;c-16.3,0.3-29.5,13.4-29.8,29.8c0,1.6,0.1,3.2,0.4,4.7c0.3,1.5,0.6,3,1.1,4.4c0.4,1.1,0.8,2.3,1.3,3.3"/>
	<path class="st1_savings-74" d="M266.5,199c-0.2,0-0.5,0-0.7-0.1c-0.8-0.4-1.2-1.4-0.9-2.2c0,0,0,0,0,0c0.5-1,0.9-2.1,1.2-3.2&#10;&#9;&#9;c0.4-1.4,0.8-2.8,1-4.2c2.5-15.6-8.1-30.3-23.7-32.8s-30.3,8.1-32.8,23.7c-0.2,1.5-0.4,3-0.4,4.6c0,2.9,0.4,5.9,1.3,8.7&#10;&#9;&#9;c0.3,1.1,0.8,2.1,1.2,3.2c0.4,0.8,0.1,1.8-0.8,2.2c-0.8,0.4-1.8,0.1-2.2-0.8c0,0,0-0.1,0-0.1c-1.2-2.6-2-5.4-2.5-8.2&#10;&#9;&#9;c-2.8-17.4,9-33.9,26.5-36.7s33.9,9,36.7,26.5c0.3,1.7,0.4,3.5,0.4,5.2c0,1.7-0.1,3.3-0.4,5c-0.3,1.6-0.6,3.2-1.1,4.7&#10;&#9;&#9;c-0.4,1.2-0.8,2.4-1.4,3.5C267.7,198.6,267.1,199,266.5,199z"/>
	<g id="lUQdTl-2_savings-74">
		<path class="st3_savings-74" d="M253.8,191.4c-0.1-0.6-0.2-1.3-0.4-1.9c-0.7-2.3-2.4-4.1-4.6-5.1c-1.8-0.8-3.8-1.4-5.8-1.8l-0.8-0.2v-9.1&#10;&#9;&#9;&#9;l0.1-0.1c0.7,0.5,1.4,1.1,2,1.7c0.7,0.9,1.1,1.9,1.1,3h7.3c-0.1-0.7-0.1-1.4-0.3-2.1c-0.4-2.5-1.7-4.7-3.6-6.3&#10;&#9;&#9;&#9;c-1.8-1.5-4-2.5-6.3-2.9c-0.3-0.1-0.4-0.2-0.4-0.5c0-1.6,0-3.2,0-4.7h-6.8v4.9l-0.4,0.1c-1.2,0.3-2.4,0.6-3.6,1&#10;&#9;&#9;&#9;c-2.9,1-5.3,3.3-6.3,6.3c-0.7,2-0.9,4.2-0.4,6.3c0.3,1.7,1.1,3.3,2.3,4.5c1.3,1.2,2.8,2,4.4,2.5c1.4,0.4,2.7,0.8,4.1,1.2v9.2h6.8&#10;&#9;&#9;&#9;v-7.7c1.3,0.5,2.7,0.8,3.6,1.9c0.5,0.7,0.8,1.5,0.7,2.4c-0.1,1.1-0.5,2.1-1.3,2.8c-0.3,0.2-0.5,0.4-0.8,0.6h8.5&#10;&#9;&#9;&#9;c0.5-1.1,0.7-2.2,0.8-3.3C253.9,193.2,253.9,192.3,253.8,191.4z M232.5,179.5c-1.4-1.4-1.4-3.7,0-5.1c0.1-0.1,0.3-0.3,0.5-0.4&#10;&#9;&#9;&#9;c0.8-0.5,1.7-0.9,2.6-1.3v8.2C234.4,180.6,233.4,180.2,232.5,179.5z M231.3,194c-0.1-0.4-0.2-0.9-0.3-1.4h-7.2&#10;&#9;&#9;&#9;c0,0.5,0,0.9,0.1,1.4c0.1,1.2,0.4,2.3,0.8,3.3h9.1C232.6,196.6,231.7,195.4,231.3,194z"/>
	</g>
</g>
<g id="coins-3_savings-74">
	<path class="st0_savings-74" d="M424,396.2h-61c-1.2,0-2.1-0.9-2.1-2.1v-12.7c0-1.2,0.9-2.1,2.1-2.1h61c1.2,0,2.1,0.9,2.1,2.1v12.7&#10;&#9;&#9;C426.1,395.3,425.2,396.2,424,396.2z"/>
	<path class="st1_savings-74" d="M422.5,397.9h-58.1c-2.9,0-5.2-2.3-5.2-5.2v-9.8c0-2.9,2.3-5.2,5.2-5.2h58.1c2.9,0,5.2,2.3,5.2,5.2v9.8&#10;&#9;&#9;C427.8,395.5,425.4,397.9,422.5,397.9z M364.5,381c-1,0-1.9,0.8-1.9,1.9v9.8c0,1,0.8,1.9,1.9,1.9h58.1c1,0,1.9-0.8,1.9-1.9v-9.8&#10;&#9;&#9;c0-1-0.8-1.9-1.9-1.9H364.5z"/>
	<path class="st0_savings-74" d="M433.1,379.3h-61c-1.2,0-2.1-0.9-2.1-2.1v-12.7c0-1.2,0.9-2.1,2.1-2.1h61c1.2,0,2.1,0.9,2.1,2.1v12.7&#10;&#9;&#9;C435.2,378.4,434.3,379.3,433.1,379.3z"/>
	<path class="st1_savings-74" d="M431.6,381h-58.1c-2.9,0-5.2-2.3-5.2-5.2V366c0-2.9,2.3-5.2,5.2-5.2h58.1c2.9,0,5.2,2.3,5.2,5.2v9.8&#10;&#9;&#9;C436.9,378.7,434.5,381,431.6,381z M373.6,364.1c-1,0-1.9,0.8-1.9,1.9v9.8c0,1,0.8,1.9,1.9,1.9h58.1c1,0,1.9-0.8,1.9-1.9V366&#10;&#9;&#9;c0-1-0.8-1.9-1.9-1.9L373.6,364.1z"/>
</g>
<path id="line_savings-74" class="st1_savings-74" d="M449.3,397.9H50.7c-0.9,0-1.7-0.7-1.7-1.7s0.7-1.7,1.7-1.7c0,0,0,0,0,0h398.7c0.9,0,1.7,0.7,1.7,1.7&#10;&#9;C451,397.1,450.3,397.9,449.3,397.9C449.3,397.9,449.3,397.9,449.3,397.9z"/>
</svg>